<svg id="undraw_Beer_celebration_cefj" xmlns="http://www.w3.org/2000/svg" width="308.077" height="270.538"><circle id="Ellipse_1" data-name="Ellipse 1" cx="98.66" cy="98.66" r="98.66" transform="translate(52.663 43.747)" fill="none" stroke="#3ad29f" stroke-miterlimit="10" stroke-width="5" stroke-dasharray="12" opacity=".4"/><circle id="Ellipse_2" data-name="Ellipse 2" cx="75.231" cy="75.231" r="75.231" transform="translate(76.092 67.177)" fill="none" stroke="#3ad29f" stroke-miterlimit="10" stroke-width="5" stroke-dasharray="12" opacity=".4"/><path id="Path_2" data-name="Path 2" d="M946.661 503.1a.549.549 0 1 0-.53-.549.55.55 0 0 0 .53.549Z" transform="translate(-665.377 -347.695)" fill="#f5f5f5"/><g id="Group_8" data-name="Group 8" transform="translate(278.722 239.456)" opacity=".5"><path id="Path_3" data-name="Path 3" d="M946.856 735.358a3.988 3.988 0 0 0-5.2.484 4.073 4.073 0 0 0 .162 5.678l4.971 4.944a.83.83 0 0 0 1.174 0l4.944-4.971a4.073 4.073 0 0 0 .13-5.678 3.988 3.988 0 0 0-5.2-.455.837.837 0 0 1-.981-.002Z" transform="translate(-940.582 -734.597)" fill="#6c63ff"/></g><g id="Group_9" data-name="Group 9" transform="translate(15.872 224.447)" opacity=".5"><path id="Path_4" data-name="Path 4" d="M228.856 694.358a3.988 3.988 0 0 0-5.2.484 4.073 4.073 0 0 0 .162 5.678l4.971 4.944a.83.83 0 0 0 1.174 0l4.944-4.971a4.073 4.073 0 0 0 .13-5.678 3.987 3.987 0 0 0-5.2-.455.837.837 0 0 1-.981-.002Z" transform="translate(-222.582 -693.597)" fill="#6c63ff"/></g><g id="Group_10" data-name="Group 10" transform="translate(29.051 24.929)" opacity=".5"><path id="Path_5" data-name="Path 5" d="M264.856 149.358a3.988 3.988 0 0 0-5.2.484 4.073 4.073 0 0 0 .162 5.678l4.971 4.944a.83.83 0 0 0 1.174 0l4.944-4.971a4.073 4.073 0 0 0 .13-5.678 3.988 3.988 0 0 0-5.2-.455.837.837 0 0 1-.981-.002Z" transform="translate(-258.582 -148.597)" fill="#6c63ff"/></g><g id="Group_11" data-name="Group 11" transform="translate(232.595 8.822)" opacity=".5"><path id="Path_6" data-name="Path 6" d="M820.856 105.358a3.987 3.987 0 0 0-5.2.484 4.073 4.073 0 0 0 .162 5.678l4.971 4.944a.83.83 0 0 0 1.174 0l4.944-4.971a4.073 4.073 0 0 0 .13-5.678 3.988 3.988 0 0 0-5.2-.455.837.837 0 0 1-.977 0Z" transform="translate(-814.582 -104.597)" fill="#6c63ff"/></g><g id="Group_12" data-name="Group 12" transform="translate(169.261)" opacity=".5" fill="#3ad29f"><path id="Rectangle_7" data-name="Rectangle 7" transform="translate(2.563)" d="M0 0h1.098v6.223H0z"/><path id="Rectangle_8" data-name="Rectangle 8" transform="rotate(90 1.83 4.393)" d="M0 0h1.098v6.223H0z"/></g><g id="Group_13" data-name="Group 13" transform="translate(9.647 79.807)" opacity=".5" fill="#3ad29f"><path id="Rectangle_9" data-name="Rectangle 9" transform="translate(2.563)" d="M0 0h1.098v6.223H0z"/><path id="Rectangle_10" data-name="Rectangle 10" transform="rotate(90 1.83 4.393)" d="M0 0h1.098v6.223H0z"/></g><g id="Group_14" data-name="Group 14" transform="translate(215.022 264.314)" opacity=".5" fill="#3ad29f"><path id="Rectangle_11" data-name="Rectangle 11" transform="translate(2.563)" d="M0 0h1.098v6.223H0z"/><path id="Rectangle_12" data-name="Rectangle 12" transform="rotate(90 1.83 4.393)" d="M0 0h1.098v6.223H0z"/></g><g id="Group_15" data-name="Group 15" transform="translate(13.308 181.945)" opacity=".5" fill="#3ad29f"><path id="Rectangle_13" data-name="Rectangle 13" transform="translate(2.563)" d="M0 0h1.098v6.223H0z"/><path id="Rectangle_14" data-name="Rectangle 14" transform="rotate(90 1.83 4.393)" d="M0 0h1.098v6.223H0z"/></g><g id="Group_16" data-name="Group 16" transform="translate(81.4 191.097)" opacity=".5" fill="#3ad29f"><path id="Rectangle_15" data-name="Rectangle 15" transform="translate(2.563)" d="M0 0h1.098v6.223H0z"/><path id="Rectangle_16" data-name="Rectangle 16" transform="rotate(90 1.83 4.393)" d="M0 0h1.098v6.223H0z"/></g><path id="Path_7" data-name="Path 7" d="M344.886 747.075a1.345 1.345 0 0 1-.749-1.626.654.654 0 0 0 .029-.149.675.675 0 0 0-1.212-.447.646.646 0 0 0-.075.132 1.345 1.345 0 0 1-1.626.75.644.644 0 0 0-.149-.029.675.675 0 0 0-.447 1.212.641.641 0 0 0 .132.075 1.345 1.345 0 0 1 .75 1.626.645.645 0 0 0-.029.149.675.675 0 0 0 1.212.447.647.647 0 0 0 .075-.132 1.345 1.345 0 0 1 1.626-.75.647.647 0 0 0 .149.029.675.675 0 0 0 .447-1.212.65.65 0 0 0-.133-.075Z" transform="translate(-281.389 -501.472)" fill="#f55f44" opacity=".5"/><path id="Path_8" data-name="Path 8" d="M592.886 713.075a1.345 1.345 0 0 1-.75-1.626.644.644 0 0 0 .029-.149.675.675 0 0 0-1.212-.447.643.643 0 0 0-.075.133 1.345 1.345 0 0 1-1.626.75.643.643 0 0 0-.149-.029.675.675 0 0 0-.447 1.212.651.651 0 0 0 .133.075 1.345 1.345 0 0 1 .75 1.626.644.644 0 0 0-.029.149.674.674 0 0 0 1.212.447.646.646 0 0 0 .075-.132 1.345 1.345 0 0 1 1.626-.75.649.649 0 0 0 .149.029.675.675 0 0 0 .447-1.212.645.645 0 0 0-.133-.076Z" transform="translate(-438.6 -479.919)" fill="#3ad29f" opacity=".5"/><path id="Path_9" data-name="Path 9" d="M688.886 245.075a1.345 1.345 0 0 1-.75-1.626.651.651 0 0 0 .029-.149.675.675 0 0 0-1.212-.447.646.646 0 0 0-.075.132 1.345 1.345 0 0 1-1.626.75.645.645 0 0 0-.149-.029.675.675 0 0 0-.447 1.212.649.649 0 0 0 .132.075 1.345 1.345 0 0 1 .75 1.626.647.647 0 0 0-.029.149.674.674 0 0 0 1.212.447.642.642 0 0 0 .075-.132 1.345 1.345 0 0 1 1.626-.75.647.647 0 0 0 .149.029.675.675 0 0 0 .447-1.212.649.649 0 0 0-.132-.075Z" transform="translate(-499.456 -183.248)" fill="#f55f44" opacity=".5"/><path id="Path_10" data-name="Path 10" d="M945.886 251.075a1.345 1.345 0 0 1-.75-1.626.647.647 0 0 0 .029-.149.675.675 0 0 0-1.212-.447.643.643 0 0 0-.075.132 1.345 1.345 0 0 1-1.626.75.645.645 0 0 0-.149-.029.675.675 0 0 0-.447 1.212.644.644 0 0 0 .132.075 1.345 1.345 0 0 1 .75 1.626.651.651 0 0 0-.029.149.675.675 0 0 0 1.212.447.648.648 0 0 0 .075-.132 1.345 1.345 0 0 1 1.626-.75.648.648 0 0 0 .149.029.675.675 0 0 0 .447-1.212.643.643 0 0 0-.132-.075Z" transform="translate(-662.372 -187.051)" fill="#f55f44" opacity=".5"/><path id="Path_11" data-name="Path 11" d="M575.886 526.075a1.345 1.345 0 0 1-.749-1.626.655.655 0 0 0 .029-.149.675.675 0 0 0-1.212-.447.645.645 0 0 0-.075.132 1.345 1.345 0 0 1-1.626.75.652.652 0 0 0-.149-.029.675.675 0 0 0-.447 1.212.643.643 0 0 0 .132.075 1.345 1.345 0 0 1 .75 1.626.653.653 0 0 0-.029.149.675.675 0 0 0 1.212.447.651.651 0 0 0 .075-.132 1.345 1.345 0 0 1 1.626-.749.657.657 0 0 0 .149.029.675.675 0 0 0 .447-1.212.648.648 0 0 0-.133-.076Z" transform="translate(-427.824 -361.377)" fill="#f55f44" opacity=".5"/><path id="Path_12" data-name="Path 12" d="M1011.886 100.075a1.345 1.345 0 0 1-.75-1.626.641.641 0 0 0 .029-.149.675.675 0 0 0-1.212-.447.643.643 0 0 0-.075.132 1.345 1.345 0 0 1-1.626.75.645.645 0 0 0-.149-.029.675.675 0 0 0-.447 1.212.649.649 0 0 0 .132.075 1.345 1.345 0 0 1 .75 1.626.647.647 0 0 0-.029.149.675.675 0 0 0 1.212.447.648.648 0 0 0 .075-.132 1.345 1.345 0 0 1 1.626-.75.648.648 0 0 0 .149.029.675.675 0 0 0 .447-1.212.641.641 0 0 0-.132-.075Z" transform="translate(-704.21 -91.33)" fill="#f55f44" opacity=".5"/><path id="Path_13" data-name="Path 13" d="m699.662 334.331-1.881-13.153L591.9 332.236l18.993 103.684a20.443 20.443 0 0 0 23.684 16.58l63.2-11.149a20.443 20.443 0 0 0 16.581-23.684L712 404.272a35.51 35.51 0 0 0-12.337-69.941Zm10.875 61.649-9.412-53.357a27.09 27.09 0 0 1 9.412 53.357Z" transform="translate(-440.46 -225.412)" fill="#d4def7"/><path id="Rectangle_17" data-name="Rectangle 17" transform="rotate(-10.02 651.699 -872.404)" fill="#f7f7f7" d="M0 0h80.905v50.52H0z"/><path id="Path_16" data-name="Path 16" d="M633.356 399.491s17.56-7.93 36.052-.04 43.623-14.015 43.623-14.015l4.258 24.138-55.624 17.636-16.265-1.592Z" transform="translate(-467.105 -273.803)" fill="#6c63ff"/><path id="Path_17" data-name="Path 17" d="M633.356 399.491s17.56-7.93 36.052-.04 43.623-14.015 43.623-14.015l4.258 24.138-55.624 17.636-16.265-1.592Z" transform="translate(-467.105 -273.803)" opacity=".05"/><path id="Path_18" data-name="Path 18" d="m728.612 473.764-79.675 14.055-15.581-88.328q40.046 21.486 79.675-14.055Z" transform="translate(-467.105 -273.803)" fill="#6c63ff"/><path id="Path_19" data-name="Path 19" d="M671.328 476.991a1.282 1.282 0 0 0 .717 2.46 1.282 1.282 0 0 0-.717-2.46Z" transform="translate(-490.613 -331.804)" fill="#fafafa"/><path id="Path_20" data-name="Path 20" d="M769.45 613.014a1.282 1.282 0 0 0 .717 2.46 1.282 1.282 0 0 0-.717-2.46Z" transform="translate(-552.814 -418.031)" fill="#fafafa"/><path id="Path_21" data-name="Path 21" d="M720.619 560.7a1.282 1.282 0 0 0 .717 2.46 1.282 1.282 0 0 0-.717-2.46Z" transform="translate(-521.86 -384.869)" fill="#fafafa"/><path id="Path_22" data-name="Path 22" d="M757.06 502.485a1.282 1.282 0 0 0 .717 2.46 1.282 1.282 0 0 0-.717-2.46Z" transform="translate(-544.96 -347.966)" fill="#fafafa"/><path id="Path_23" data-name="Path 23" d="M844.187 466.807a1.282 1.282 0 0 0 .717 2.46 1.282 1.282 0 0 0-.717-2.46Z" transform="translate(-600.191 -325.349)" fill="#fafafa"/><path id="Path_24" data-name="Path 24" d="M179.772 264.214a35.51 35.51 0 0 0 28.8 41.139l-2.363 13.4a20.443 20.443 0 0 0 16.581 23.684L286 353.582A20.443 20.443 0 0 0 309.68 337l18.139-98.746-105.027-15.774-1.88 12.933a35.51 35.51 0 0 0-41.14 28.801Zm8.292 1.463a27.09 27.09 0 0 1 31.385-21.977l-9.412 53.357a27.09 27.09 0 0 1-21.973-31.38Z" transform="translate(-179.226 -162.735)" fill="#d4def7"/><path id="Rectangle_18" data-name="Rectangle 18" transform="scale(-1) rotate(10.02 582.72 -800.355)" fill="#f7f7f7" d="M0 0h80.905v50.52H0z"/><path id="Path_27" data-name="Path 27" d="M401.659 300.491s-17.56-7.93-36.052-.04-43.623-14.015-43.623-14.015l-4.258 24.138 55.624 17.636 16.266-1.592Z" transform="translate(-267.023 -211.046)" fill="#6c63ff"/><path id="Path_28" data-name="Path 28" d="M401.659 300.491s-17.56-7.93-36.052-.04-43.623-14.015-43.623-14.015l-4.258 24.138 55.624 17.636 16.266-1.592Z" transform="translate(-267.023 -211.046)" opacity=".05"/><path id="Path_29" data-name="Path 29" d="m286.8 374.764 79.675 14.055 15.581-88.327q-40.046 21.486-79.675-14.055Z" transform="translate(-247.416 -211.046)" fill="#6c63ff"/><path id="Path_30" data-name="Path 30" d="M504.706 377.991a1.282 1.282 0 0 1-.717 2.46 1.282 1.282 0 0 1 .717-2.46Z" transform="translate(-384.534 -269.047)" fill="#fafafa"/><path id="Path_31" data-name="Path 31" d="M406.585 514.014a1.282 1.282 0 0 1-.717 2.46 1.282 1.282 0 0 1 .717-2.46Z" transform="translate(-322.334 -355.274)" fill="#fafafa"/><path id="Path_32" data-name="Path 32" d="M455.415 461.7a1.282 1.282 0 0 1-.717 2.46 1.282 1.282 0 0 1 .717-2.46Z" transform="translate(-353.288 -322.112)" fill="#fafafa"/><path id="Path_33" data-name="Path 33" d="M418.974 403.485a1.282 1.282 0 0 1-.717 2.46 1.282 1.282 0 0 1 .717-2.46Z" transform="translate(-330.188 -285.208)" fill="#fafafa"/><path id="Path_34" data-name="Path 34" d="M331.847 367.807a1.282 1.282 0 0 1-.717 2.46 1.282 1.282 0 0 1 .717-2.46Z" transform="translate(-274.957 -262.592)" fill="#fafafa"/><path id="Path_35" data-name="Path 35" d="M697.922 283.728c-2.347-8.049-28.717-7.439-58.9 1.361s-52.748 22.459-50.4 30.508c1.431 4.909 11.8 6.6 26.52 5.169a9.485 9.485 0 0 0 17.154 7.408c3.534 7.185 9.341 11.5 14.312 10.047 5.441-1.586 8.019-9.529 6.328-18.447 2.741 2.143 5.834 3.042 8.7 2.206 3.5-1.02 5.89-4.394 6.773-8.812a8.882 8.882 0 0 0 6.739.919c2.82-.822 4.923-3.175 6.1-6.371 2.327 6.336 7.691 10.258 12.424 8.878 5.03-1.467 7.444-8.365 5.39-15.407a16.035 16.035 0 0 0-5.732-8.566c3.617-3.302 5.327-6.373 4.592-8.893Z" transform="translate(-439.373 -203.546)" opacity=".03"/><path id="Path_36" data-name="Path 36" d="M695.02 273.775c-2.347-8.049-28.717-7.439-58.9 1.361s-52.748 22.459-50.4 30.508c1.431 4.909 11.8 6.6 26.52 5.169a9.485 9.485 0 0 0 17.154 7.408c3.534 7.185 9.341 11.5 14.312 10.047 5.441-1.586 8.019-9.529 6.328-18.447 2.74 2.143 5.834 3.042 8.7 2.206 3.5-1.02 5.89-4.394 6.772-8.812a8.882 8.882 0 0 0 6.739.919c2.82-.822 4.923-3.175 6.1-6.371 2.327 6.336 7.691 10.258 12.424 8.878 5.03-1.467 7.444-8.365 5.39-15.407a16.036 16.036 0 0 0-5.732-8.566c3.618-3.301 5.328-6.368 4.593-8.893Z" transform="translate(-437.533 -197.238)" fill="#fff"/><path id="Path_37" data-name="Path 37" d="M289.64 184.728c2.347-8.049 28.717-7.439 58.9 1.361s52.748 22.459 50.4 30.508c-1.431 4.909-11.8 6.6-26.52 5.169a9.485 9.485 0 0 1-17.154 7.408c-3.534 7.185-9.34 11.5-14.312 10.047-5.441-1.586-8.019-9.529-6.327-18.447-2.741 2.143-5.834 3.042-8.7 2.206-3.5-1.02-5.89-4.394-6.772-8.812a8.882 8.882 0 0 1-6.739.919c-2.82-.822-4.923-3.175-6.1-6.371-2.327 6.336-7.691 10.258-12.424 8.878-5.03-1.467-7.444-8.365-5.39-15.407a16.035 16.035 0 0 1 5.732-8.566c-3.619-3.302-5.329-6.373-4.594-8.893Z" transform="translate(-246.571 -138.594)" opacity=".03"/><path id="Path_38" data-name="Path 38" d="M292.542 174.775c2.347-8.049 28.717-7.439 58.9 1.361s52.748 22.459 50.4 30.508c-1.431 4.909-11.8 6.6-26.52 5.169a9.485 9.485 0 0 1-17.154 7.408c-3.534 7.185-9.341 11.5-14.312 10.047-5.441-1.586-8.019-9.529-6.328-18.447-2.74 2.143-5.834 3.042-8.7 2.206-3.5-1.02-5.89-4.394-6.772-8.812a8.882 8.882 0 0 1-6.739.919c-2.82-.822-4.923-3.175-6.1-6.371-2.328 6.336-7.691 10.258-12.424 8.878-5.03-1.467-7.444-8.365-5.39-15.407a16.035 16.035 0 0 1 5.732-8.566c-3.618-3.301-5.328-6.368-4.593-8.893Z" transform="translate(-248.411 -132.286)" fill="#fff"/></svg>