<svg xmlns="http://www.w3.org/2000/svg" width="80" height="47"><defs><linearGradient id="linear-gradient" x2="1" y2="1" gradientUnits="objectBoundingBox"><stop offset="0" stop-color="#8eb1fc"/><stop offset="1" stop-color="#7293fa"/></linearGradient><linearGradient id="linear-gradient-2" x2="1" y2="1" gradientUnits="objectBoundingBox"><stop offset="0" stop-color="#5b719f"/><stop offset="1" stop-color="#2e3d62"/></linearGradient><linearGradient id="linear-gradient-3" x2="1" y2="1" gradientUnits="objectBoundingBox"><stop offset="0" stop-color="#ffecc3"/><stop offset="1" stop-color="#ffd590"/></linearGradient></defs><g id="Oval" transform="translate(-17 -43)"><g id="Group-2" transform="translate(0 21)"><g id="Group" transform="translate(17 22)"><ellipse id="Oval-2" data-name="Oval" cx="40" cy="5.5" rx="40" ry="5.5" transform="translate(0 36)" fill="#e9effe"/><g id="card" transform="translate(11)"><path id="XMLID_114_" d="M54.783 42H3.217A3.217 3.217 0 0 1 0 38.783V3.217A3.217 3.217 0 0 1 3.217 0h51.566A3.217 3.217 0 0 1 58 3.217v35.566A3.217 3.217 0 0 1 54.783 42" fill-rule="evenodd" fill="url('#linear-gradient')"/><path id="XMLID_113_" transform="translate(0 6)" fill="#6e8dea" d="M0 0h58v8H0z"/><path id="XMLID_113_2" data-name="XMLID_113_" transform="translate(0 5)" fill="url('#linear-gradient-2')" d="M0 0h58v8H0z"/><path id="Combined-Shape" d="M19.636 19a1.507 1.507 0 0 1 0 3H7.364a1.507 1.507 0 0 1 0-3ZM38 20.5a1.436 1.436 0 0 1-1.364 1.5H24.364a1.507 1.507 0 0 1 0-3h12.272A1.436 1.436 0 0 1 38 20.5ZM8 26c.553 0 1 .672 1 1.5S8.553 29 8 29H7c-.553 0-1-.672-1-1.5S6.447 26 7 26Zm9.5 0a1.5 1.5 0 0 1 0 3h-3a1.5 1.5 0 0 1 0-3Zm5.5 0c.553 0 1 .672 1 1.5s-.447 1.5-1 1.5h-1c-.553 0-1-.672-1-1.5s.447-1.5 1-1.5Zm7.5 0a1.5 1.5 0 0 1 0 3h-3a1.5 1.5 0 0 1 0-3Zm4.35.075a1.323 1.323 0 0 1 1.838 0 1.389 1.389 0 0 1 0 1.9 1.341 1.341 0 0 1-.919.388 1.305 1.305 0 0 1-.919-.388 1.389 1.389 0 0 1 0-1.9Z" fill="#7d9ae8" fill-rule="evenodd"/><path id="Combined-Shape-2" data-name="Combined-Shape" d="M18.636 18a1.507 1.507 0 0 1 0 3H6.364a1.507 1.507 0 0 1 0-3ZM37 19.5a1.436 1.436 0 0 1-1.364 1.5H23.364a1.507 1.507 0 0 1 0-3h12.272A1.436 1.436 0 0 1 37 19.5ZM7 25c.553 0 1 .672 1 1.5S7.553 28 7 28H6c-.553 0-1-.672-1-1.5S5.447 25 6 25Zm9.5 0a1.5 1.5 0 0 1 0 3h-3a1.5 1.5 0 0 1 0-3Zm5.5 0c.553 0 1 .672 1 1.5s-.447 1.5-1 1.5h-1c-.553 0-1-.672-1-1.5s.447-1.5 1-1.5Zm7.5 0a1.5 1.5 0 0 1 0 3h-3a1.5 1.5 0 0 1 0-3Zm4.35.075a1.323 1.323 0 0 1 1.838 0 1.389 1.389 0 0 1 0 1.9 1.341 1.341 0 0 1-.919.388 1.305 1.305 0 0 1-.919-.388 1.389 1.389 0 0 1 0-1.9Z" fill="#b0d3f0" fill-rule="evenodd"/><rect id="XMLID_105_" width="12" height="7" rx="2" transform="translate(42 31)" fill="#6785df"/><rect id="XMLID_105_2" data-name="XMLID_105_" width="12" height="7" rx="2" transform="translate(41 30)" fill="url('#linear-gradient-3')"/></g></g></g></g></svg>